<?xml version="1.0" encoding="utf-8"?>
<svg version="1.1" xmlns:xlink="http://www.w3.org/1999/xlink" width="12px" height="12px" viewBox="1686 384  12 12" xmlns="http://www.w3.org/2000/svg">
  <path d="M 1692 384  C 1695.36 384  1698 386.64  1698 390  C 1698 393.36  1695.36 396  1692 396  C 1688.64 396  1686 393.36  1686 390  C 1686 386.64  1688.64 384  1692 384  Z " fill-rule="nonzero" fill="#ffffff" stroke="none" />
  <path d="M 1692 384.5  C 1695.08 384.5  1697.5 386.92  1697.5 390  C 1697.5 393.08  1695.08 395.5  1692 395.5  C 1688.92 395.5  1686.5 393.08  1686.5 390  C 1686.5 386.92  1688.92 384.5  1692 384.5  Z " stroke-width="1" stroke="#797979" fill="none" />
  <path d="M 1692 393  C 1690.32 393  1689 391.68  1689 390  C 1689 388.32  1690.32 387  1692 387  C 1693.68 387  1695 388.32  1695 390  C 1695 391.68  1693.68 393  1692 393  " fill-rule="nonzero" fill="#797979" stroke="none" />
</svg>