<?xml version="1.0" encoding="utf-8"?>
<svg version="1.1" xmlns:xlink="http://www.w3.org/1999/xlink" width="12px" height="12px" viewBox="1740 624  12 12" xmlns="http://www.w3.org/2000/svg">
  <path d="M 1746 624  C 1749.36 624  1752 626.64  1752 630  C 1752 633.36  1749.36 636  1746 636  C 1742.64 636  1740 633.36  1740 630  C 1740 626.64  1742.64 624  1746 624  Z " fill-rule="nonzero" fill="#ffffff" stroke="none" />
  <path d="M 1746 624.5  C 1749.08 624.5  1751.5 626.92  1751.5 630  C 1751.5 633.08  1749.08 635.5  1746 635.5  C 1742.92 635.5  1740.5 633.08  1740.5 630  C 1740.5 626.92  1742.92 624.5  1746 624.5  Z " stroke-width="1" stroke="#797979" fill="none" />
  <path d="M 1746 633  C 1744.32 633  1743 631.68  1743 630  C 1743 628.32  1744.32 627  1746 627  C 1747.68 627  1749 628.32  1749 630  C 1749 631.68  1747.68 633  1746 633  " fill-rule="nonzero" fill="#797979" stroke="none" />
</svg>