<?xml version="1.0" encoding="utf-8"?>
<svg version="1.1" xmlns:xlink="http://www.w3.org/1999/xlink" width="12px" height="12px" viewBox="1686 861  12 12" xmlns="http://www.w3.org/2000/svg">
  <path d="M 1692 861  C 1695.36 861  1698 863.64  1698 867  C 1698 870.36  1695.36 873  1692 873  C 1688.64 873  1686 870.36  1686 867  C 1686 863.64  1688.64 861  1692 861  Z " fill-rule="nonzero" fill="#ffffff" stroke="none" />
  <path d="M 1692 861.5  C 1695.08 861.5  1697.5 863.92  1697.5 867  C 1697.5 870.08  1695.08 872.5  1692 872.5  C 1688.92 872.5  1686.5 870.08  1686.5 867  C 1686.5 863.92  1688.92 861.5  1692 861.5  Z " stroke-width="1" stroke="#797979" fill="none" />
  <path d="M 1692 870  C 1690.32 870  1689 868.68  1689 867  C 1689 865.32  1690.32 864  1692 864  C 1693.68 864  1695 865.32  1695 867  C 1695 868.68  1693.68 870  1692 870  " fill-rule="nonzero" fill="#797979" stroke="none" />
</svg>