<?xml version="1.0" encoding="utf-8"?>
<svg version="1.1" xmlns:xlink="http://www.w3.org/1999/xlink" width="12px" height="12px" viewBox="1740 860  12 12" xmlns="http://www.w3.org/2000/svg">
  <path d="M 1746 860  C 1749.36 860  1752 862.64  1752 866  C 1752 869.36  1749.36 872  1746 872  C 1742.64 872  1740 869.36  1740 866  C 1740 862.64  1742.64 860  1746 860  Z " fill-rule="nonzero" fill="#ffffff" stroke="none" />
  <path d="M 1746 860.5  C 1749.08 860.5  1751.5 862.92  1751.5 866  C 1751.5 869.08  1749.08 871.5  1746 871.5  C 1742.92 871.5  1740.5 869.08  1740.5 866  C 1740.5 862.92  1742.92 860.5  1746 860.5  Z " stroke-width="1" stroke="#797979" fill="none" />
  <path d="M 1746 869  C 1744.32 869  1743 867.68  1743 866  C 1743 864.32  1744.32 863  1746 863  C 1747.68 863  1749 864.32  1749 866  C 1749 867.68  1747.68 869  1746 869  " fill-rule="nonzero" fill="#797979" stroke="none" />
</svg>