<?xml version="1.0" encoding="utf-8"?>
<svg version="1.1" xmlns:xlink="http://www.w3.org/1999/xlink" width="12px" height="12px" viewBox="1637 1313  12 12" xmlns="http://www.w3.org/2000/svg">
  <path d="M 1643 1313  C 1646.36 1313  1649 1315.64  1649 1319  C 1649 1322.36  1646.36 1325  1643 1325  C 1639.64 1325  1637 1322.36  1637 1319  C 1637 1315.64  1639.64 1313  1643 1313  Z " fill-rule="nonzero" fill="#ffffff" stroke="none" />
  <path d="M 1643 1313.5  C 1646.08 1313.5  1648.5 1315.92  1648.5 1319  C 1648.5 1322.08  1646.08 1324.5  1643 1324.5  C 1639.92 1324.5  1637.5 1322.08  1637.5 1319  C 1637.5 1315.92  1639.92 1313.5  1643 1313.5  Z " stroke-width="1" stroke="#797979" fill="none" />
  <path d="M 1643 1322  C 1641.32 1322  1640 1320.68  1640 1319  C 1640 1317.32  1641.32 1316  1643 1316  C 1644.68 1316  1646 1317.32  1646 1319  C 1646 1320.68  1644.68 1322  1643 1322  " fill-rule="nonzero" fill="#797979" stroke="none" />
</svg>