<?xml version="1.0" encoding="utf-8"?>
<svg version="1.1" xmlns:xlink="http://www.w3.org/1999/xlink" width="31px" height="31px" xmlns="http://www.w3.org/2000/svg">
  <g transform="matrix(1 0 0 1 -478 -2108 )">
    <path d="M 493.5 2108  C 502.18 2108  509 2114.82  509 2123.5  C 509 2132.18  502.18 2139  493.5 2139  C 484.82 2139  478 2132.18  478 2123.5  C 478 2114.82  484.82 2108  493.5 2108  Z " fill-rule="nonzero" fill="#ffffff" stroke="none" />
    <path d="M 493.5 2108.5  C 501.9 2108.5  508.5 2115.1  508.5 2123.5  C 508.5 2131.9  501.9 2138.5  493.5 2138.5  C 485.1 2138.5  478.5 2131.9  478.5 2123.5  C 478.5 2115.1  485.1 2108.5  493.5 2108.5  Z " stroke-width="1" stroke="#797979" fill="none" />
  </g>
</svg>