<?xml version="1.0" encoding="utf-8"?>
<svg version="1.1" xmlns:xlink="http://www.w3.org/1999/xlink" width="12px" height="12px" viewBox="1740 383  12 12" xmlns="http://www.w3.org/2000/svg">
  <path d="M 1746 383  C 1749.36 383  1752 385.64  1752 389  C 1752 392.36  1749.36 395  1746 395  C 1742.64 395  1740 392.36  1740 389  C 1740 385.64  1742.64 383  1746 383  Z " fill-rule="nonzero" fill="#ffffff" stroke="none" />
  <path d="M 1746 383.5  C 1749.08 383.5  1751.5 385.92  1751.5 389  C 1751.5 392.08  1749.08 394.5  1746 394.5  C 1742.92 394.5  1740.5 392.08  1740.5 389  C 1740.5 385.92  1742.92 383.5  1746 383.5  Z " stroke-width="1" stroke="#797979" fill="none" />
  <path d="M 1746 392  C 1744.32 392  1743 390.68  1743 389  C 1743 387.32  1744.32 386  1746 386  C 1747.68 386  1749 387.32  1749 389  C 1749 390.68  1747.68 392  1746 392  " fill-rule="nonzero" fill="#797979" stroke="none" />
</svg>