<?xml version="1.0" encoding="utf-8"?>
<svg version="1.1" xmlns:xlink="http://www.w3.org/1999/xlink" width="12px" height="12px" viewBox="1637 625  12 12" xmlns="http://www.w3.org/2000/svg">
  <path d="M 1643 625  C 1646.36 625  1649 627.64  1649 631  C 1649 634.36  1646.36 637  1643 637  C 1639.64 637  1637 634.36  1637 631  C 1637 627.64  1639.64 625  1643 625  Z " fill-rule="nonzero" fill="#ffffff" stroke="none" />
  <path d="M 1643 625.5  C 1646.08 625.5  1648.5 627.92  1648.5 631  C 1648.5 634.08  1646.08 636.5  1643 636.5  C 1639.92 636.5  1637.5 634.08  1637.5 631  C 1637.5 627.92  1639.92 625.5  1643 625.5  Z " stroke-width="1" stroke="#797979" fill="none" />
  <path d="M 1643 634  C 1641.32 634  1640 632.68  1640 631  C 1640 629.32  1641.32 628  1643 628  C 1644.68 628  1646 629.32  1646 631  C 1646 632.68  1644.68 634  1643 634  " fill-rule="nonzero" fill="#797979" stroke="none" />
</svg>