<?xml version="1.0" encoding="utf-8"?>
<svg version="1.1" xmlns:xlink="http://www.w3.org/1999/xlink" width="12px" height="12px" viewBox="1567 1313  12 12" xmlns="http://www.w3.org/2000/svg">
  <path d="M 1573 1313  C 1576.36 1313  1579 1315.64  1579 1319  C 1579 1322.36  1576.36 1325  1573 1325  C 1569.64 1325  1567 1322.36  1567 1319  C 1567 1315.64  1569.64 1313  1573 1313  Z " fill-rule="nonzero" fill="#ffffff" stroke="none" />
  <path d="M 1573 1313.5  C 1576.08 1313.5  1578.5 1315.92  1578.5 1319  C 1578.5 1322.08  1576.08 1324.5  1573 1324.5  C 1569.92 1324.5  1567.5 1322.08  1567.5 1319  C 1567.5 1315.92  1569.92 1313.5  1573 1313.5  Z " stroke-width="1" stroke="#797979" fill="none" />
  <path d="M 1573 1322  C 1571.32 1322  1570 1320.68  1570 1319  C 1570 1317.32  1571.32 1316  1573 1316  C 1574.68 1316  1576 1317.32  1576 1319  C 1576 1320.68  1574.68 1322  1573 1322  " fill-rule="nonzero" fill="#797979" stroke="none" />
</svg>